<svg width="347" height="90" viewBox="0 0 347 90" fill="none" xmlns="http://www.w3.org/2000/svg">
<path fill-rule="evenodd" clip-rule="evenodd" d="M4.7207 5.67188H0.311523V27H25.3311V5.67188H20.9512V23.5723H15.0625V5.67188H10.668V23.5723H4.7207V5.67188ZM33.4902 17.6396V23.5723H37.2549C38.0264 23.5723 38.6562 23.4502 39.1445 23.2061C39.6328 22.9521 39.9941 22.6104 40.2285 22.1807C40.4629 21.751 40.5801 21.2578 40.5801 20.7012C40.5801 20.0762 40.4727 19.5342 40.2578 19.0752C40.0527 18.6162 39.7207 18.2646 39.2617 18.0205C38.8027 17.7666 38.1973 17.6396 37.4453 17.6396H33.4902ZM41.4476 16.0048C41.6485 15.9244 41.8379 15.8346 42.0156 15.7354C42.8652 15.2666 43.4854 14.6611 43.876 13.9189C44.2764 13.1768 44.4766 12.3662 44.4766 11.4873C44.4766 10.4912 44.2959 9.63184 43.9346 8.90918C43.5732 8.17676 43.0508 7.57129 42.3672 7.09277C41.6836 6.61426 40.8486 6.25781 39.8623 6.02344C38.8857 5.78906 37.7773 5.67188 36.5371 5.67188H29.0957V27H30.7656H33.4902H37.2549C38.9053 27 40.3018 26.7656 41.4443 26.2969C42.5967 25.8281 43.4707 25.1299 44.0664 24.2021C44.6621 23.2646 44.96 22.1123 44.96 20.7451C44.96 19.8857 44.7744 19.0801 44.4033 18.3281C44.042 17.5762 43.4609 16.9658 42.6602 16.4971C42.3067 16.2832 41.9025 16.1191 41.4476 16.0048ZM36.5371 14.6221C37.3477 14.6221 38.0117 14.5195 38.5293 14.3145C39.0469 14.0996 39.4326 13.792 39.6865 13.3916C39.9502 12.9814 40.082 12.4834 40.082 11.8975C40.082 11.2334 39.9551 10.6963 39.7012 10.2861C39.457 9.87598 39.0713 9.57812 38.5439 9.39258C38.0264 9.20703 37.3574 9.11426 36.5371 9.11426H33.4902V14.6221H36.5371ZM62.5674 27V23.5723H52.6504V17.6982H61.0879V14.3584H52.6504V9.11426H62.5527V5.67188H52.6504H51.2148H48.2559V27H51.2148H52.6504H62.5674ZM77.9336 5.67188L69.3643 20.0859V5.67188H64.9697V27H69.3643L77.9336 12.5859V27H82.3281V5.67188H77.9336ZM78.7832 0.0761719H75.7803C75.7803 0.583984 75.624 1.03809 75.3115 1.43848C74.999 1.83887 74.4619 2.03906 73.7002 2.03906C72.9287 2.03906 72.3818 1.83887 72.0596 1.43848C71.7471 1.03809 71.5908 0.583984 71.5908 0.0761719H68.6025C68.6025 1.3457 69.0566 2.38086 69.9648 3.18164C70.8828 3.98242 72.1279 4.38281 73.7002 4.38281C74.7354 4.38281 75.6338 4.20215 76.3955 3.84082C77.1572 3.46973 77.7432 2.96191 78.1533 2.31738C78.5732 1.66309 78.7832 0.916016 78.7832 0.0761719ZM99.1152 17.7861H90.5312V27H86.1367V5.67188H90.5312V14.3584H99.1152V5.67188H103.495V27H99.1152V17.7861ZM116.679 5.67188H117.792L125.585 26.5297L129.916 17.8414C129.13 17.4052 128.477 16.8789 127.958 16.2627C127.079 15.208 126.64 13.8652 126.64 12.2344C126.64 10.7988 126.957 9.59766 127.592 8.63086C128.236 7.6543 129.145 6.91699 130.316 6.41895C131.498 5.9209 132.899 5.67188 134.521 5.67188H141.962V27H137.553V19.251H133.962L130.111 27H125.761H125.351H121.073L119.594 22.5029H111.929L110.453 27H105.78L113.705 5.67188H114.789H116.679ZM113.058 19.0605H118.462L115.756 10.8355L113.058 19.0605ZM137.553 16.0283V9.11426H134.521C133.319 9.11426 132.436 9.41211 131.869 10.0078C131.303 10.6035 131.02 11.4482 131.02 12.542C131.02 13.3428 131.151 14.002 131.415 14.5195C131.679 15.0273 132.064 15.4082 132.572 15.6621C133.08 15.9062 133.72 16.0283 134.491 16.0283H137.553ZM158.749 5.67188H156.728H155.028H153.021V27H157.401V20.9355L156.964 11.0302L162.733 27H165.722L171.491 11.0302L171.054 20.9355V27H175.448V5.67188H173.427H171.728H169.706L164.228 21.3311L158.749 5.67188ZM188.661 5.67188H189.774L197.743 27H193.056L191.577 22.5029H183.911L182.436 27H177.763L185.688 5.67188H186.771H188.661ZM185.04 19.0605H190.444L187.739 10.8355L185.04 19.0605ZM216.2 19.9248H211.82C211.762 20.7842 211.571 21.502 211.249 22.0781C210.937 22.6543 210.482 23.0889 209.887 23.3818C209.291 23.6748 208.534 23.8213 207.616 23.8213C206.835 23.8213 206.166 23.6797 205.609 23.3965C205.062 23.1035 204.613 22.6738 204.262 22.1074C203.92 21.5312 203.666 20.8281 203.5 19.998C203.334 19.1582 203.251 18.1865 203.251 17.083V15.5742C203.251 14.4414 203.339 13.4551 203.515 12.6152C203.7 11.7656 203.979 11.0625 204.35 10.5059C204.721 9.94922 205.18 9.53418 205.727 9.26074C206.273 8.9873 206.913 8.85059 207.646 8.85059C208.622 8.85059 209.403 9.00684 209.989 9.31934C210.585 9.62207 211.029 10.0762 211.322 10.6816C211.615 11.2773 211.786 12.0049 211.835 12.8643H216.229C216.093 11.4189 215.683 10.1299 214.999 8.99707C214.325 7.86426 213.373 6.97559 212.143 6.33105C210.922 5.68652 209.423 5.36426 207.646 5.36426C206.308 5.36426 205.097 5.60352 204.013 6.08203C202.929 6.56055 201.996 7.24414 201.215 8.13281C200.443 9.02148 199.848 10.1006 199.428 11.3701C199.018 12.6299 198.812 14.041 198.812 15.6035V17.083C198.812 18.6455 199.013 20.0566 199.413 21.3164C199.813 22.5762 200.395 23.6504 201.156 24.5391C201.928 25.4277 202.855 26.1113 203.939 26.5898C205.023 27.0586 206.249 27.293 207.616 27.293C209.364 27.293 210.858 26.9805 212.099 26.3555C213.349 25.7305 214.32 24.8613 215.014 23.748C215.717 22.6348 216.112 21.3604 216.2 19.9248ZM228.183 27V9.11426H234.745V5.67188H228.183H223.803H217.343V9.11426H223.803V27H228.183ZM251.562 27V23.5723H241.645V17.6982H250.082V14.3584H241.645V9.11426H251.547V5.67188H241.645H240.209H237.25V27H240.209H241.645H251.562ZM258.52 19.3975H262.431C264.101 19.3975 265.531 19.124 266.723 18.5771C267.924 18.0303 268.842 17.2539 269.477 16.248C270.111 15.2422 270.429 14.0508 270.429 12.6738C270.429 11.3164 270.111 10.1104 269.477 9.05566C268.842 8.00098 267.924 7.17578 266.723 6.58008C265.531 5.97461 264.101 5.67188 262.431 5.67188H254.125V27H258.52V19.3975ZM258.52 15.9697V9.11426H262.431C263.271 9.11426 263.954 9.28027 264.481 9.6123C265.009 9.94434 265.395 10.3838 265.639 10.9307C265.883 11.4775 266.005 12.0684 266.005 12.7031C266.005 13.3281 265.883 13.8896 265.639 14.3877C265.395 14.8857 265.009 15.2764 264.481 15.5596C263.954 15.833 263.271 15.9697 262.431 15.9697H258.52ZM290.204 19.9248H285.824C285.766 20.7842 285.575 21.502 285.253 22.0781C284.94 22.6543 284.486 23.0889 283.891 23.3818C283.295 23.6748 282.538 23.8213 281.62 23.8213C280.839 23.8213 280.17 23.6797 279.613 23.3965C279.066 23.1035 278.617 22.6738 278.266 22.1074C277.924 21.5312 277.67 20.8281 277.504 19.998C277.338 19.1582 277.255 18.1865 277.255 17.083V15.5742C277.255 14.4414 277.343 13.4551 277.519 12.6152C277.704 11.7656 277.982 11.0625 278.354 10.5059C278.725 9.94922 279.184 9.53418 279.73 9.26074C280.277 8.9873 280.917 8.85059 281.649 8.85059C282.626 8.85059 283.407 9.00684 283.993 9.31934C284.589 9.62207 285.033 10.0762 285.326 10.6816C285.619 11.2773 285.79 12.0049 285.839 12.8643H290.233C290.097 11.4189 289.687 10.1299 289.003 8.99707C288.329 7.86426 287.377 6.97559 286.146 6.33105C284.926 5.68652 283.427 5.36426 281.649 5.36426C280.312 5.36426 279.101 5.60352 278.017 6.08203C276.933 6.56055 276 7.24414 275.219 8.13281C274.447 9.02148 273.852 10.1006 273.432 11.3701C273.021 12.6299 272.816 14.041 272.816 15.6035V17.083C272.816 18.6455 273.017 20.0566 273.417 21.3164C273.817 22.5762 274.398 23.6504 275.16 24.5391C275.932 25.4277 276.859 26.1113 277.943 26.5898C279.027 27.0586 280.253 27.293 281.62 27.293C283.368 27.293 284.862 26.9805 286.103 26.3555C287.353 25.7305 288.324 24.8613 289.018 23.748C289.721 22.6348 290.116 21.3604 290.204 19.9248ZM297.499 14.2852V5.67188H293.104V27H297.499V18.1963H300.023L305.541 27H310.683H310.756H315.355L316.831 22.5029H324.496L325.976 27H330.253H330.663H335.014L338.864 19.251H342.455V27H346.864V5.67188H339.423C337.802 5.67188 336.4 5.9209 335.219 6.41895C334.047 6.91699 333.139 7.6543 332.494 8.63086C331.859 9.59766 331.542 10.7988 331.542 12.2344C331.542 13.8652 331.981 15.208 332.86 16.2627C333.38 16.8789 334.032 17.4052 334.818 17.8414L330.487 26.5297L322.694 5.67188H321.581H319.691H318.607L310.709 26.9278L303.508 15.7233L310.067 5.67188H304.735L299.55 14.2852H297.499ZM320.659 10.8355L317.96 19.0605H323.364L320.659 10.8355ZM342.455 16.0283V9.11426H339.423C338.222 9.11426 337.338 9.41211 336.771 10.0078C336.205 10.6035 335.922 11.4482 335.922 12.542C335.922 13.3428 336.054 14.002 336.317 14.5195C336.581 15.0273 336.967 15.4082 337.475 15.6621C337.982 15.9062 338.622 16.0283 339.394 16.0283H342.455ZM43.229 90V38.1016H0.277344V90H11.8618V47.1196H31.6089V90H43.229ZM76.6028 38.1016H79.597L98.8807 90H86.4764L83.171 79.6631H65.2495L61.9529 90H49.5486L68.761 38.1016H71.6482H76.6028ZM68.1142 70.6807H80.2988L74.1984 51.6027L68.1142 70.6807ZM124.423 47.1196H137.173V90H148.794V38.1016H140.738H137.173H124.876H114.432H113.327L112.507 60.5576C112.412 63.528 112.234 66.1182 111.973 68.3281C111.735 70.5381 111.402 72.4154 110.975 73.96C110.571 75.5046 110.06 76.7759 109.442 77.7739C108.824 78.7482 108.088 79.4849 107.232 79.9839C106.4 80.4829 105.414 80.7799 104.274 80.875L102.919 81.0176V90H105.735C108.04 90 110.095 89.7386 111.901 89.2158C113.707 88.693 115.288 87.8376 116.642 86.6494C117.997 85.4375 119.149 83.8454 120.1 81.873C121.074 79.877 121.834 77.4412 122.381 74.5659C122.951 71.6668 123.343 68.2568 123.557 64.3359L124.423 47.1196ZM190.152 38.1016L170.369 72.0352V38.1016H158.785V90H170.369L190.152 56.1021V90H201.736V38.1016H190.152ZM235.217 90V47.1196H251.008V38.1016H235.217H223.633H208.163V47.1196H223.633V90H235.217ZM270.337 71.9639H279.177C283.312 71.9639 286.853 71.2866 289.799 69.9321C292.77 68.5539 295.039 66.6291 296.607 64.1577C298.2 61.6864 298.996 58.7754 298.996 55.4248C298.996 52.0742 298.2 49.1038 296.607 46.5137C295.039 43.8997 292.77 41.8442 289.799 40.3472C286.853 38.8501 283.312 38.1016 279.177 38.1016H258.717V90H270.337V71.9639ZM270.337 62.9458V47.1196H279.177C281.102 47.1196 282.647 47.5117 283.811 48.2959C284.999 49.0801 285.867 50.1138 286.413 51.397C286.983 52.6564 287.269 54.0228 287.269 55.4961C287.269 56.9219 286.983 58.2051 286.413 59.3457C285.867 60.4626 284.999 61.3418 283.811 61.9834C282.647 62.625 281.102 62.9458 279.177 62.9458H270.337ZM324.706 38.1016H327.7L346.984 90H334.579L331.274 79.6631H313.353L310.056 90H297.652L316.864 38.1016H319.751H324.706ZM316.217 70.6807H328.402L322.301 51.6027L316.217 70.6807Z" fill="white"/>
</svg>
